<svg width="2338" height="2339" xmlns="http://www.w3.org/2000/svg" xmlns:xlink="http://www.w3.org/1999/xlink" xml:space="preserve" overflow="hidden"><g transform="translate(-1031 -68)"><path d="M2200 328C2235.86 328 2264.93 357.086 2264.93 392.964L2264.93 1172.54 3044.07 1172.54C3079.93 1172.54 3109 1201.62 3109 1237.5 3109 1273.38 3079.93 1302.46 3044.07 1302.46L2264.93 1302.46 2264.93 2082.04C2264.93 2117.91 2235.86 2147 2200 2147 2164.14 2147 2135.07 2117.91 2135.07 2082.04L2135.07 1302.46 1355.93 1302.46C1320.07 1302.46 1291 1273.38 1291 1237.5 1291 1201.62 1320.07 1172.54 1355.93 1172.54L2135.07 1172.54 2135.07 392.964C2135.07 357.086 2164.14 328 2200 328Z" fill="#5F57E6" fill-rule="evenodd"/></g></svg>