<svg width="2338" height="2339" xmlns="http://www.w3.org/2000/svg" xmlns:xlink="http://www.w3.org/1999/xlink" xml:space="preserve" overflow="hidden"><g transform="translate(-1031 -68)"><path d="M1602.95 575C1619.57 575 1636.2 581.346 1648.88 594.038L2200 1145.58 2751.12 594.038C2776.49 568.654 2817.61 568.654 2842.98 594.038 2868.34 619.422 2868.34 660.577 2842.98 685.961L2291.85 1237.5 2842.98 1789.04C2868.34 1814.42 2868.34 1855.58 2842.98 1880.96 2817.61 1906.35 2776.49 1906.35 2751.12 1880.96L2200 1329.42 1648.88 1880.96C1623.51 1906.35 1582.39 1906.35 1557.02 1880.96 1531.66 1855.58 1531.66 1814.42 1557.02 1789.04L2108.15 1237.5 1557.02 685.961C1531.66 660.577 1531.66 619.422 1557.02 594.038 1569.71 581.346 1586.33 575 1602.95 575Z" fill="#5F57E6" fill-rule="evenodd"/></g></svg>