<svg width="2338" height="2339" xmlns="http://www.w3.org/2000/svg" xmlns:xlink="http://www.w3.org/1999/xlink" xml:space="preserve" overflow="hidden"><g transform="translate(-1031 -68)"><path d="M2599.72 1279.84 2599.72 1409.77 2859.69 1409.77 2859.69 1279.84ZM1940.03 1199.1 1940.03 1329.04 2200 1329.04 2200 1199.1ZM1532.73 1199.1 1532.73 1329.04 1792.7 1329.04 1792.7 1199.1ZM2600.56 1050.49 2600.56 1180.42 2860.53 1180.42 2860.53 1050.49ZM1942.1 973.691 1942.1 1103.62 2202.07 1103.62 2202.07 973.691ZM1534.8 973.691 1534.8 1103.62 1794.77 1103.62 1794.77 973.691ZM2599.72 821.131 2599.72 951.064 2859.69 951.064 2859.69 821.131ZM1946.51 748.279 1946.51 878.212 2206.48 878.212 2206.48 748.279ZM1539.22 748.279 1539.22 878.212 1799.19 878.212 1799.19 748.279ZM1462.86 652.8 2285.03 652.8C2345.15 652.8 2393.89 701.516 2393.89 761.611L2393.89 1489.98 2393.89 2103.19 2393.89 2212 2285.03 2212 2036.42 2212 2036.42 1745.58C2036.42 1715.05 2011.67 1690.3 1981.12 1690.3L1766.76 1690.3C1736.22 1690.3 1711.46 1715.05 1711.46 1745.58L1711.46 2212 1462.86 2212 1354 2212 1354 2103.19 1354 1489.98 1354 761.611C1354 701.516 1402.74 652.8 1462.86 652.8ZM2599.72 591.776 2599.72 721.709 2859.69 721.709 2859.69 591.776ZM2599.72 362.421 2599.72 492.355 2859.69 492.355 2859.69 362.421ZM2192.42 362.421 2192.42 492.355 2452.39 492.355 2452.39 362.421ZM2114.97 263 2937.15 263C2997.26 263 3046 311.716 3046 371.811L3046 1489.98 3046 2103.19 3046 2212 2937.15 2212 2491.38 2212 2486.97 2212 2488.75 2206.28C2490.47 2197.87 2491.38 2189.16 2491.38 2180.24L2491.38 684.564C2491.38 613.201 2433.5 555.35 2362.11 555.35L2006.11 555.35 2006.11 371.811C2006.11 311.716 2054.85 263 2114.97 263Z" fill="#222A35" fill-rule="evenodd"/></g></svg>