<svg width="2338" height="2339" xmlns="http://www.w3.org/2000/svg" xmlns:xlink="http://www.w3.org/1999/xlink" xml:space="preserve" overflow="hidden"><g transform="translate(-1031 -68)"><path d="M2546.63 1022.73C2510.73 1022.73 2481.63 1051.81 2481.63 1087.68L2481.63 1866.99C2481.63 1902.86 2510.73 1931.93 2546.63 1931.93 2582.53 1931.93 2611.63 1902.86 2611.63 1866.99L2611.63 1087.68C2611.63 1051.81 2582.53 1022.73 2546.63 1022.73ZM2200 1022.73C2164.1 1022.73 2135 1051.81 2135 1087.68L2135 1866.99C2135 1902.86 2164.1 1931.93 2200 1931.93 2235.9 1931.93 2265 1902.86 2265 1866.99L2265 1087.68C2265 1051.81 2235.9 1022.73 2200 1022.73ZM1853.37 1022.73C1817.47 1022.73 1788.37 1051.81 1788.37 1087.68L1788.37 1866.99C1788.37 1902.86 1817.47 1931.93 1853.37 1931.93 1889.27 1931.93 1918.37 1902.86 1918.37 1866.99L1918.37 1087.68C1918.37 1051.81 1889.27 1022.73 1853.37 1022.73ZM1615 900.142 2785 900.142 2785 2004.17C2785 2111.77 2697.69 2199 2590 2199L1810 2199C1702.31 2199 1615 2111.77 1615 2004.17ZM2105.66 374.277C2077.43 374.277 2053.2 391.428 2042.86 415.872L2039.08 434.541 2037.5 434.541 2037.5 442.381 2037.5 510.484 2105.66 510.484 2105.66 510.485 2294.34 510.485 2294.34 510.484 2362.5 510.484 2362.5 442.381 2362.5 434.541 2360.92 434.541 2357.14 415.872C2346.8 391.428 2322.57 374.277 2294.34 374.277ZM2070 276 2330 276C2392.82 276 2445.24 320.522 2457.36 379.709L2458.18 387.893 2460 387.893 2460 405.886 2460 510.485 2590 510.485 2850 510.485C2921.8 510.485 2980 568.636 2980 640.37 2980 712.105 2921.8 770.256 2850 770.256L1550 770.256C1478.2 770.256 1420 712.105 1420 640.37 1420 568.636 1478.2 510.485 1550 510.485L1810 510.485 1940 510.485 1940 405.886 1940 387.893 1941.82 387.893 1942.64 379.709C1954.76 320.522 2007.18 276 2070 276Z" fill="#222A35" fill-rule="evenodd"/></g></svg>