<svg width="2338" height="2339" xmlns="http://www.w3.org/2000/svg" xmlns:xlink="http://www.w3.org/1999/xlink" xml:space="preserve" overflow="hidden"><g transform="translate(-1031 -68)"><path d="M2200 1919.28C2164.14 1919.28 2135.06 1948.35 2135.06 1984.21 2135.06 2020.07 2164.14 2049.14 2200 2049.14 2235.86 2049.14 2264.94 2020.07 2264.94 1984.21 2264.94 1948.35 2235.86 1919.28 2200 1919.28ZM2200 1789.41C2280.69 1789.41 2349.93 1838.47 2379.5 1908.38L2382.88 1919.28 3174.06 1919.28C3209.93 1919.28 3239 1948.35 3239 1984.21 3239 2020.07 3209.93 2049.14 3174.06 2049.14L2382.88 2049.14 2379.5 2060.03C2349.93 2129.94 2280.69 2179 2200 2179 2119.31 2179 2050.07 2129.94 2020.5 2060.03L2017.12 2049.14 1225.94 2049.14C1190.07 2049.14 1161 2020.07 1161 1984.21 1161 1948.35 1190.07 1919.28 1225.94 1919.28L2017.12 1919.28 2020.5 1908.38C2050.07 1838.47 2119.31 1789.41 2200 1789.41ZM2761.89 1172.57C2726.03 1172.57 2696.95 1201.64 2696.95 1237.5 2696.95 1273.36 2726.03 1302.43 2761.89 1302.43 2797.75 1302.43 2826.83 1273.36 2826.83 1237.5 2826.83 1201.64 2797.75 1172.57 2761.89 1172.57ZM2761.89 1042.71C2842.58 1042.71 2911.82 1091.76 2941.39 1161.68L2944.77 1172.57 3174.06 1172.57C3209.93 1172.57 3239 1201.64 3239 1237.5 3239 1273.36 3209.93 1302.43 3174.06 1302.43L2944.77 1302.43 2941.39 1313.32C2911.82 1383.24 2842.58 1432.29 2761.89 1432.29 2681.2 1432.29 2611.96 1383.24 2582.39 1313.32L2579.01 1302.43 1225.94 1302.43C1190.07 1302.43 1161 1273.36 1161 1237.5 1161 1201.64 1190.07 1172.57 1225.94 1172.57L2579.01 1172.57 2582.39 1161.68C2611.96 1091.76 2681.2 1042.71 2761.89 1042.71ZM1759.12 425.862C1723.25 425.862 1694.18 454.933 1694.18 490.793 1694.18 526.653 1723.25 555.724 1759.12 555.724 1794.98 555.724 1824.06 526.653 1824.06 490.793 1824.06 454.933 1794.98 425.862 1759.12 425.862ZM1759.12 296C1839.81 296 1909.05 345.057 1938.62 414.971L1942 425.862 3174.06 425.862C3209.93 425.862 3239 454.933 3239 490.793 3239 526.653 3209.93 555.724 3174.06 555.724L1942 555.724 1938.62 566.616C1909.05 636.53 1839.81 685.586 1759.12 685.586 1678.42 685.586 1609.19 636.53 1579.62 566.616L1576.23 555.724 1225.94 555.724C1190.07 555.724 1161 526.653 1161 490.793 1161 454.933 1190.07 425.862 1225.94 425.862L1576.23 425.862 1579.62 414.971C1609.19 345.057 1678.42 296 1759.12 296Z" fill="#222A35" fill-rule="evenodd"/></g></svg>