<svg width="1884" height="1883" xmlns="http://www.w3.org/2000/svg" xmlns:xlink="http://www.w3.org/1999/xlink" xml:space="preserve" overflow="hidden"><g transform="translate(-1258 -296)"><path d="M2175.93 1198.6C2189.22 1198.6 2200 1209.39 2200 1222.7 2200 1236.01 2189.22 1246.8 2175.93 1246.8 2162.63 1246.8 2151.85 1236.01 2151.85 1222.7 2151.85 1209.39 2162.63 1198.6 2175.93 1198.6ZM2324.07 1161.72C2317.43 1161.72 2312.04 1167.12 2312.04 1173.77 2312.04 1180.43 2317.43 1185.82 2324.07 1185.82 2330.72 1185.82 2336.11 1180.43 2336.11 1173.77 2336.11 1167.12 2330.72 1161.72 2324.07 1161.72ZM2324.07 1137.62C2344.02 1137.62 2360.19 1153.81 2360.19 1173.77 2360.19 1193.73 2344.02 1209.92 2324.07 1209.92 2304.13 1209.92 2287.96 1193.73 2287.96 1173.77 2287.96 1153.81 2304.13 1137.62 2324.07 1137.62ZM2095.36 1089.43C2082.07 1089.43 2071.29 1100.22 2071.29 1113.53 2071.29 1126.84 2082.07 1137.62 2095.36 1137.62 2108.66 1137.62 2119.44 1126.84 2119.44 1113.53 2119.44 1100.22 2108.66 1089.43 2095.36 1089.43ZM2095.36 1065.33C2121.95 1065.33 2143.51 1086.91 2143.51 1113.53 2143.51 1140.14 2121.95 1161.72 2095.36 1161.72 2068.77 1161.72 2047.21 1140.14 2047.21 1113.53 2047.21 1086.91 2068.77 1065.33 2095.36 1065.33ZM2493.7 1047.74C2497.85 1047.74 2501.42 1054.49 2502.94 1064.1L2503.04 1064.96 2503.16 1065.05 2503.25 1065.17 2504.11 1065.27C2513.71 1066.79 2520.45 1070.36 2520.45 1074.52 2520.45 1078.68 2513.71 1082.24 2504.11 1083.77L2503.25 1083.87 2503.16 1083.98 2503.04 1084.08 2502.94 1084.94C2501.42 1094.55 2497.85 1101.29 2493.7 1101.29 2489.54 1101.29 2485.98 1094.55 2484.46 1084.94L2484.36 1084.08 2484.24 1083.98 2484.15 1083.87 2483.29 1083.77C2473.69 1082.24 2466.95 1078.68 2466.95 1074.52 2466.95 1070.36 2473.69 1066.79 2483.29 1065.27L2484.15 1065.17 2484.24 1065.05 2484.36 1064.96 2484.46 1064.1C2485.98 1054.49 2489.54 1047.74 2493.7 1047.74ZM2083.87 1008.72 2068.22 1009.3C2022.95 1012.67 1988.9 1027.24 1988.9 1044.71L1988.43 1044.71 1987.29 1049.39 1984.72 1067.23 1984.32 1070.02 1984.32 1070.02C1978.37 1132.23 1999.19 1196.52 2046.79 1244.16 2131.4 1328.86 2268.6 1328.86 2353.21 1244.16 2369.08 1228.28 2381.97 1210.55 2391.88 1191.66L2394.11 1186.88 2400.81 1172.42C2412.71 1143.05 2417.91 1111.6 2416.43 1080.4L2416.15 1077.15 2405.65 1084.13C2382.89 1096.89 2349.26 1104.95 2311.76 1104.95 2243.18 1104.95 2187.58 1077.98 2187.58 1044.71L2187.58 1044.71C2187.58 1029.74 2162.56 1016.89 2126.91 1011.4L2123.92 1011.07 2117.53 1011.4 2117.24 1011.43 2117.11 1011.4C2111.35 1010.49 2105.3 1009.78 2099.03 1009.3ZM2200 1008.56 2187.39 1008.78 2191.21 1011.03C2204.6 1020.64 2212.42 1032.23 2212.42 1044.71L2212.42 1044.71C2212.42 1064.67 2256.89 1080.86 2311.76 1080.86 2366.62 1080.86 2411.1 1064.67 2411.1 1044.71L2411.63 1044.71 2410.8 1041.13 2410.77 1041.01C2399.92 1022.79 2309.69 1008.56 2200 1008.56ZM2547.66 937.218C2551.82 937.218 2555.38 943.961 2556.91 953.571L2557.01 954.432 2557.12 954.526 2557.22 954.641 2558.08 954.741C2567.68 956.265 2574.41 959.834 2574.41 963.993 2574.41 968.152 2567.68 971.72 2558.08 973.244L2557.22 973.345 2557.12 973.459 2557.01 973.554 2556.91 974.415C2555.38 984.025 2551.82 990.768 2547.66 990.768 2543.51 990.768 2539.94 984.025 2538.42 974.415L2538.32 973.554 2538.21 973.459 2538.11 973.345 2537.25 973.244C2527.65 971.72 2520.91 968.152 2520.91 963.993 2520.91 959.834 2527.65 956.265 2537.25 954.741L2538.11 954.641 2538.21 954.526 2538.32 954.432 2538.42 953.571C2539.94 943.961 2543.51 937.218 2547.66 937.218ZM2467.5 787.239C2475.81 787.239 2482.94 800.725 2485.99 819.945L2486.19 821.667 2486.42 821.856 2486.6 822.085 2488.32 822.286C2507.53 825.334 2521 832.471 2521 840.789 2521 849.107 2507.53 856.244 2488.32 859.292L2486.6 859.492 2486.42 859.722 2486.19 859.911 2485.99 861.633C2482.94 880.853 2475.81 894.339 2467.5 894.339 2459.19 894.339 2452.06 880.853 2449.01 861.633L2448.81 859.911 2448.58 859.722 2448.4 859.492 2446.68 859.292C2427.47 856.244 2414 849.107 2414 840.789 2414 832.471 2427.47 825.334 2446.68 822.286L2448.4 822.085 2448.58 821.856 2448.81 821.667 2449.01 819.945C2452.06 800.725 2459.19 787.239 2467.5 787.239ZM2151.85 735.901 2151.85 735.901 2151.85 832.291 2065.89 918.331 2046.79 937.451C2036.21 948.039 2026.96 959.448 2019.02 971.474L2009.05 988.364 2008.12 989.949 2008.12 989.949 2004.24 998.296 2002.88 1001.24 2009.25 998.222C2030.72 989.628 2058.24 984.465 2088.24 984.465 2096.81 984.465 2105.18 984.886 2113.27 985.689L2126.78 987.724 2152.45 985.689C2167.81 984.887 2183.71 984.465 2200 984.465 2283.98 984.465 2357.72 995.67 2399.53 1012.54L2402.5 1013.87 2398.76 1004.32C2388.23 980.043 2373.04 957.302 2353.21 937.451L2248.15 832.291 2248.15 798.212 2248.15 798.212 2248.15 735.901ZM1945.88 706.914C1958.34 706.914 1969.04 727.143 1973.6 755.973L1973.9 758.556 1974.25 758.84 1974.53 759.183 1977.11 759.484C2005.92 764.057 2026.12 774.762 2026.12 787.239 2026.12 799.716 2005.92 810.421 1977.11 814.993L1974.53 815.294 1974.25 815.638 1973.9 815.922 1973.6 818.505C1969.04 847.335 1958.34 867.564 1945.88 867.564 1933.41 867.564 1922.71 847.335 1918.15 818.505L1917.85 815.922 1917.5 815.638 1917.22 815.294 1914.64 814.993C1885.84 810.421 1865.63 799.716 1865.63 787.239 1865.63 774.762 1885.84 764.057 1914.64 759.484L1917.22 759.183 1917.5 758.84 1917.85 758.556 1918.15 755.973C1922.71 727.143 1933.41 706.914 1945.88 706.914ZM2127.77 688.085C2124.45 688.085 2121.44 689.433 2119.26 691.614 2117.08 693.794 2115.74 696.806 2115.74 700.133 2115.74 706.787 2121.13 712.182 2127.77 712.182L2127.77 711.803 2272.23 711.803 2272.23 712.182C2278.87 712.182 2284.26 706.787 2284.26 700.133 2284.26 693.479 2278.87 688.085 2272.23 688.085ZM2039.5 643.466C2043.66 643.466 2047.22 650.209 2048.74 659.818L2048.84 660.68 2048.96 660.774 2049.05 660.889 2049.91 660.989C2059.51 662.513 2066.25 666.081 2066.25 670.241 2066.25 674.4 2059.51 677.968 2049.91 679.492L2049.05 679.592 2048.96 679.707 2048.84 679.802 2048.74 680.663C2047.22 690.273 2043.66 697.016 2039.5 697.016 2035.35 697.016 2031.78 690.273 2030.26 680.663L2030.16 679.802 2030.04 679.707 2029.95 679.592 2029.09 679.492C2019.49 677.968 2012.75 674.4 2012.75 670.241 2012.75 666.081 2019.49 662.513 2029.09 660.989L2029.95 660.889 2030.04 660.774 2030.16 660.68 2030.26 659.818C2031.78 650.209 2035.35 643.466 2039.5 643.466ZM2165.41 591.316C2161.66 591.316 2158.27 592.835 2155.82 595.291 2153.37 597.747 2151.85 601.139 2151.85 604.887L2151.85 618.278 2151.85 625.94 2151.85 663.608 2248.15 663.608 2248.15 625.94 2248.15 618.278 2248.15 604.887C2248.15 597.392 2242.08 591.316 2234.59 591.316ZM2245.11 567.218C2256.34 567.218 2265.98 574.054 2270.09 583.796L2271.61 591.316 2272.23 591.316 2272.23 594.361 2272.23 636.466 2272.23 663.608C2292.17 663.608 2308.34 679.792 2308.34 699.755 2308.34 719.718 2292.17 735.901 2272.23 735.901L2272.23 822.309 2370.24 920.412C2464.25 1014.52 2464.25 1167.1 2370.24 1261.2 2276.22 1355.31 2123.78 1355.31 2029.76 1261.2 1971 1202.39 1948.97 1120.73 1963.66 1044.78L1966.31 1033.92 1966.59 1032.57 1966.67 1032.43 1969.17 1022.2C1980.18 984.939 2000.38 949.82 2029.76 920.412L2127.77 822.309 2127.77 735.901C2107.83 735.901 2091.66 719.718 2091.66 699.755 2091.66 679.792 2107.83 663.608 2127.77 663.608L2127.77 636.466 2127.77 594.361 2127.77 591.316 2128.39 591.316 2129.91 583.796C2130.94 581.36 2132.31 579.106 2133.97 577.096 2138.94 571.063 2146.47 567.218 2154.89 567.218ZM2200 494.325C1948.85 494.325 1745.25 698.114 1745.25 949.5 1745.25 1200.89 1948.85 1404.68 2200 1404.68 2451.15 1404.68 2654.75 1200.89 2654.75 949.5 2654.75 698.114 2451.15 494.325 2200 494.325ZM2200 467.55C2465.92 467.55 2681.5 683.326 2681.5 949.5 2681.5 1215.67 2465.92 1431.45 2200 1431.45 1934.08 1431.45 1718.5 1215.67 1718.5 949.5 1718.5 683.326 1934.08 467.55 2200 467.55ZM2200 440.775C1919.3 440.775 1691.75 668.539 1691.75 949.5 1691.75 1230.46 1919.3 1458.23 2200 1458.23 2480.7 1458.23 2708.25 1230.46 2708.25 949.5 2708.25 668.539 2480.7 440.775 2200 440.775ZM2200 414C2495.47 414 2735 653.751 2735 949.5 2735 1245.25 2495.47 1485 2200 1485 1904.53 1485 1665 1245.25 1665 949.5 1665 653.751 1904.53 414 2200 414Z" fill="#5F57E6" fill-rule="evenodd"/><text fill="#5F57E6" font-family="Adlanta,Adlanta_MSFontService,sans-serif" font-weight="700" font-size="165" transform="matrix(1 0 0 1 1821.6 1737)">ALCHEMY</text><text fill="#5F57E6" font-family="Adlanta,Adlanta_MSFontService,sans-serif" font-weight="700" font-size="165" transform="matrix(1 0 0 1 1658.59 1935)">INTERNSHIPS</text></g></svg>