<svg width="1040" height="1039" xmlns="http://www.w3.org/2000/svg" xmlns:xlink="http://www.w3.org/1999/xlink" xml:space="preserve" overflow="hidden"><defs><clipPath id="clip0"><rect x="1680" y="718" width="1040" height="1039"/></clipPath></defs><g clip-path="url(#clip0)" transform="translate(-1680 -718)"><path d="M1680 1237.5C1680 950.588 1912.81 718 2200 718 2487.19 718 2720 950.588 2720 1237.5 2720 1524.41 2487.19 1757 2200 1757 1912.81 1757 1680 1524.41 1680 1237.5Z" fill="#5F57E6" fill-rule="evenodd"/><path d="M2170 1046C2207.12 1046 2238.98 1106.19 2252.58 1191.97L2253.48 1199.66 2254.5 1200.5 2255.34 1201.52 2263.03 1202.42C2348.81 1216.02 2409 1247.88 2409 1285 2409 1322.12 2348.81 1353.98 2263.03 1367.58L2255.34 1368.48 2254.5 1369.5 2253.48 1370.34 2252.58 1378.03C2238.98 1463.81 2207.12 1524 2170 1524 2132.88 1524 2101.02 1463.81 2087.42 1378.03L2086.52 1370.34 2085.5 1369.5 2084.66 1368.48 2076.97 1367.58C1991.19 1353.98 1931 1322.12 1931 1285 1931 1247.88 1991.19 1216.02 2076.97 1202.42L2084.66 1201.52 2085.5 1200.5 2086.52 1199.66 2087.42 1191.97C2101.02 1106.19 2132.88 1046 2170 1046Z" fill="#FFFFFF" fill-rule="evenodd"/><path d="M2389.5 951C2401.85 951 2412.44 971.147 2416.97 999.861L2417.27 1002.43 2417.61 1002.72 2417.89 1003.06 2420.45 1003.36C2448.98 1007.91 2469 1018.57 2469 1031 2469 1043.43 2448.98 1054.09 2420.45 1058.64L2417.89 1058.94 2417.61 1059.28 2417.27 1059.57 2416.97 1062.14C2412.44 1090.85 2401.85 1111 2389.5 1111 2377.15 1111 2366.56 1090.85 2362.03 1062.14L2361.73 1059.57 2361.39 1059.28 2361.11 1058.94 2358.56 1058.64C2330.02 1054.09 2310 1043.43 2310 1031 2310 1018.57 2330.02 1007.91 2358.56 1003.36L2361.11 1003.06 2361.39 1002.72 2361.73 1002.43 2362.03 999.861C2366.56 971.147 2377.15 951 2389.5 951Z" fill="#FFFFFF" fill-rule="evenodd"/></g></svg>