<svg width="974" height="975" xmlns="http://www.w3.org/2000/svg" xmlns:xlink="http://www.w3.org/1999/xlink" xml:space="preserve" overflow="hidden"><g transform="translate(-1713 -750)"><path d="M1884.5 943C1899.64 943 1912.64 967.554 1918.19 1002.55L1918.55 1005.68 1918.97 1006.03 1919.32 1006.45 1922.45 1006.81C1957.45 1012.36 1982 1025.36 1982 1040.5 1982 1055.64 1957.45 1068.64 1922.45 1074.19L1919.32 1074.55 1918.97 1074.97 1918.55 1075.32 1918.19 1078.45C1912.64 1113.45 1899.64 1138 1884.5 1138 1869.36 1138 1856.36 1113.45 1850.81 1078.45L1850.45 1075.32 1850.03 1074.97 1849.68 1074.55 1846.55 1074.19C1811.55 1068.64 1787 1055.64 1787 1040.5 1787 1025.36 1811.55 1012.36 1846.55 1006.81L1849.68 1006.45 1850.03 1006.03 1850.45 1005.68 1850.81 1002.55C1856.36 967.554 1869.36 943 1884.5 943Z" fill="#222A35" fill-rule="evenodd"/><path d="M2517.5 1041C2527.52 1041 2536.11 1057.37 2539.79 1080.7L2540.03 1082.79 2540.3 1083.02 2540.53 1083.3 2542.61 1083.54C2565.76 1087.24 2582 1095.9 2582 1106 2582 1116.1 2565.76 1124.76 2542.61 1128.46L2540.53 1128.7 2540.3 1128.98 2540.03 1129.21 2539.79 1131.3C2536.11 1154.63 2527.52 1171 2517.5 1171 2507.48 1171 2498.89 1154.63 2495.21 1131.3L2494.97 1129.21 2494.7 1128.98 2494.47 1128.7 2492.39 1128.46C2469.24 1124.76 2453 1116.1 2453 1106 2453 1095.9 2469.24 1087.24 2492.39 1083.54L2494.47 1083.3 2494.7 1083.02 2494.97 1082.79 2495.21 1080.7C2498.89 1057.37 2507.48 1041 2517.5 1041Z" fill="#222A35" fill-rule="evenodd"/><path d="M1997.5 866C2002.55 866 2006.88 874.185 2008.73 885.849L2008.85 886.895 2008.99 887.009 2009.11 887.148 2010.15 887.27C2021.82 889.12 2030 893.452 2030 898.5 2030 903.548 2021.82 907.879 2010.15 909.73L2009.11 909.851 2008.99 909.99 2008.85 910.105 2008.73 911.15C2006.88 922.815 2002.55 931 1997.5 931 1992.45 931 1988.12 922.815 1986.27 911.15L1986.15 910.105 1986.01 909.99 1985.89 909.851 1984.85 909.73C1973.18 907.879 1965 903.548 1965 898.5 1965 893.452 1973.18 889.12 1984.85 887.27L1985.89 887.148 1986.01 887.009 1986.15 886.895 1986.27 885.849C1988.12 874.185 1992.45 866 1997.5 866Z" fill="#222A35" fill-rule="evenodd"/><path d="M2614.5 1223C2619.55 1223 2623.88 1231.18 2625.73 1242.85L2625.85 1243.89 2625.99 1244.01 2626.11 1244.15 2627.15 1244.27C2638.82 1246.12 2647 1250.45 2647 1255.5 2647 1260.55 2638.82 1264.88 2627.15 1266.73L2626.11 1266.85 2625.99 1266.99 2625.85 1267.11 2625.73 1268.15C2623.88 1279.82 2619.55 1288 2614.5 1288 2609.45 1288 2605.12 1279.82 2603.27 1268.15L2603.15 1267.11 2603.01 1266.99 2602.89 1266.85 2601.85 1266.73C2590.18 1264.88 2582 1260.55 2582 1255.5 2582 1250.45 2590.18 1246.12 2601.85 1244.27L2602.89 1244.15 2603.01 1244.01 2603.15 1243.89 2603.27 1242.85C2605.12 1231.18 2609.45 1223 2614.5 1223Z" fill="#222A35" fill-rule="evenodd"/><path d="M2549.5 1357C2554.55 1357 2558.88 1365.18 2560.73 1376.85L2560.85 1377.89 2560.99 1378.01 2561.11 1378.15 2562.15 1378.27C2573.82 1380.12 2582 1384.45 2582 1389.5 2582 1394.55 2573.82 1398.88 2562.15 1400.73L2561.11 1400.85 2560.99 1400.99 2560.85 1401.11 2560.73 1402.15C2558.88 1413.82 2554.55 1422 2549.5 1422 2544.45 1422 2540.12 1413.82 2538.27 1402.15L2538.15 1401.11 2538.01 1400.99 2537.89 1400.85 2536.85 1400.73C2525.18 1398.88 2517 1394.55 2517 1389.5 2517 1384.45 2525.18 1380.12 2536.85 1378.27L2537.89 1378.15 2538.01 1378.01 2538.15 1377.89 2538.27 1376.85C2540.12 1365.18 2544.45 1357 2549.5 1357Z" fill="#222A35" fill-rule="evenodd"/><path d="M2163.25 1539.53C2179.4 1539.53 2192.5 1552.61 2192.5 1568.75 2192.5 1584.88 2179.4 1597.96 2163.25 1597.96 2147.1 1597.96 2134 1584.88 2134 1568.75 2134 1552.61 2147.1 1539.53 2163.25 1539.53ZM2343.24 1494.81C2335.17 1494.81 2328.62 1501.35 2328.62 1509.42 2328.62 1517.49 2335.17 1524.03 2343.24 1524.03 2351.32 1524.03 2357.87 1517.49 2357.87 1509.42 2357.87 1501.35 2351.32 1494.81 2343.24 1494.81ZM2343.24 1465.59C2367.48 1465.59 2387.12 1485.21 2387.12 1509.42 2387.12 1533.62 2367.48 1553.24 2343.24 1553.24 2319.01 1553.24 2299.37 1533.62 2299.37 1509.42 2299.37 1485.21 2319.01 1465.59 2343.24 1465.59ZM2065.37 1407.16C2049.22 1407.16 2036.12 1420.24 2036.12 1436.38 2036.12 1452.51 2049.22 1465.59 2065.37 1465.59 2081.52 1465.59 2094.62 1452.51 2094.62 1436.38 2094.62 1420.24 2081.52 1407.16 2065.37 1407.16ZM2065.37 1377.94C2097.68 1377.94 2123.87 1404.1 2123.87 1436.38 2123.87 1468.65 2097.68 1494.81 2065.37 1494.81 2033.06 1494.81 2006.87 1468.65 2006.87 1436.38 2006.87 1404.1 2033.06 1377.94 2065.37 1377.94ZM2051.4 1309.31 2032.39 1310C1977.4 1314.09 1936.02 1331.76 1936.02 1352.94L1935.45 1352.94 1934.07 1358.61 1930.94 1380.25 1930.45 1383.62 1930.45 1383.62C1923.23 1459.05 1948.53 1537 2006.35 1594.77 2109.16 1697.46 2275.84 1697.46 2378.65 1594.77 2397.92 1575.51 2413.58 1554.01 2425.63 1531.11L2428.33 1525.31 2436.47 1507.78C2450.93 1472.17 2457.26 1434.03 2455.45 1396.21L2455.12 1392.27 2442.36 1400.74C2414.7 1416.2 2373.85 1425.98 2328.28 1425.98 2244.96 1425.98 2177.41 1393.28 2177.41 1352.94L2177.41 1352.94C2177.41 1334.78 2147.02 1319.21 2103.7 1312.55L2100.06 1312.14 2092.31 1312.55 2091.95 1312.59 2091.79 1312.55C2084.79 1311.45 2077.45 1310.58 2069.83 1310ZM2192.5 1309.11 2177.18 1309.37 2181.82 1312.1C2198.09 1323.75 2207.59 1337.81 2207.59 1352.94L2207.59 1352.94C2207.59 1377.14 2261.62 1396.76 2328.28 1396.76 2394.94 1396.76 2448.98 1377.14 2448.98 1352.94L2449.62 1352.94 2448.61 1348.59 2448.57 1348.46C2435.39 1326.36 2325.77 1309.11 2192.5 1309.11ZM2134 978.521 2134 978.521 2134 1095.39 2029.56 1199.71 2006.35 1222.89C1993.5 1235.73 1982.26 1249.56 1972.62 1264.14L1960.51 1284.62 1959.37 1286.54 1959.37 1286.54 1954.67 1296.66 1953.01 1300.23 1960.75 1296.57C1986.83 1286.15 2020.26 1279.89 2056.72 1279.89 2067.13 1279.89 2077.3 1280.4 2087.12 1281.38L2103.54 1283.84 2134.73 1281.38C2153.39 1280.4 2172.71 1279.89 2192.5 1279.89 2294.54 1279.89 2384.12 1293.48 2434.92 1313.94L2438.53 1315.55 2433.99 1303.97C2421.19 1274.53 2402.74 1246.96 2378.65 1222.89L2251 1095.39 2251 1054.07 2251 1054.07 2251 978.521ZM2104.75 920.545C2100.71 920.545 2097.05 922.18 2094.41 924.824 2091.76 927.467 2090.12 931.12 2090.12 935.154 2090.12 943.222 2096.67 949.762 2104.75 949.762L2104.75 949.303 2280.25 949.303 2280.25 949.763C2288.33 949.762 2294.87 943.222 2294.87 935.154 2294.87 927.086 2288.33 920.545 2280.25 920.545ZM2150.47 803.217C2145.92 803.217 2141.81 805.059 2138.82 808.037 2135.84 811.015 2134 815.128 2134 819.672L2134 835.908 2134 845.197 2134 890.869 2251 890.869 2251 845.197 2251 835.908 2251 819.672C2251 810.584 2243.62 803.217 2234.53 803.217ZM2247.3 774C2260.95 774 2272.66 782.288 2277.66 794.1L2279.5 803.218 2280.25 803.218 2280.25 806.909 2280.25 857.96 2280.25 890.869C2304.48 890.869 2324.12 910.491 2324.12 934.695 2324.12 958.899 2304.48 978.521 2280.25 978.521L2280.25 1083.29 2399.33 1202.23C2513.56 1316.33 2513.56 1501.32 2399.33 1615.42 2285.1 1729.52 2099.9 1729.52 1985.67 1615.42 1914.28 1544.11 1887.51 1445.11 1905.35 1353.03L1908.57 1339.85 1908.91 1338.22 1909.01 1338.05 1912.05 1325.64C1925.43 1280.47 1949.97 1237.89 1985.67 1202.23L2104.75 1083.29 2104.75 978.521C2080.52 978.521 2060.88 958.899 2060.88 934.695 2060.87 910.49 2080.52 890.869 2104.75 890.869L2104.75 857.96 2104.75 806.909 2104.75 803.218 2105.5 803.218 2107.34 794.1C2108.59 791.147 2110.26 788.414 2112.27 785.976 2118.32 778.662 2127.46 774 2137.7 774Z" fill="#222A35" fill-rule="evenodd"/></g></svg>