<svg width="2338" height="2339" xmlns="http://www.w3.org/2000/svg" xmlns:xlink="http://www.w3.org/1999/xlink" xml:space="preserve" overflow="hidden"><g transform="translate(-1031 -68)"><path d="M2153.25 1721.06C2127.42 1721.06 2106.49 1742 2106.49 1767.83 2106.49 1793.67 2127.42 1814.61 2153.25 1814.61 2179.07 1814.61 2200 1793.67 2200 1767.83 2200 1742 2179.07 1721.06 2153.25 1721.06ZM2440.96 1649.46C2453.87 1649.46 2464.34 1659.93 2464.34 1672.85 2464.34 1685.77 2453.87 1696.24 2440.96 1696.24 2428.05 1696.24 2417.58 1685.77 2417.58 1672.85 2417.58 1659.93 2428.05 1649.46 2440.96 1649.46ZM2440.96 1602.68C2402.23 1602.68 2370.83 1634.1 2370.83 1672.85 2370.83 1711.6 2402.23 1743.02 2440.96 1743.02 2479.69 1743.02 2511.09 1711.6 2511.09 1672.85 2511.09 1634.1 2479.69 1602.68 2440.96 1602.68ZM1996.79 1509.13C2022.61 1509.13 2043.54 1530.07 2043.54 1555.91 2043.54 1581.74 2022.61 1602.68 1996.79 1602.68 1970.97 1602.68 1950.03 1581.74 1950.03 1555.91 1950.03 1530.07 1970.97 1509.13 1996.79 1509.13ZM1996.79 1462.35C1945.14 1462.35 1903.28 1504.24 1903.28 1555.91 1903.28 1607.57 1945.14 1649.46 1996.79 1649.46 2048.43 1649.46 2090.3 1607.57 2090.3 1555.91 2090.3 1504.24 2048.43 1462.35 1996.79 1462.35ZM2770.38 1428.21C2762.31 1428.21 2755.39 1441.3 2752.43 1459.95L2752.24 1461.62 2752.01 1461.81 2751.83 1462.03 2750.16 1462.22C2731.51 1465.18 2718.43 1472.11 2718.43 1480.18 2718.43 1488.25 2731.51 1495.18 2750.16 1498.14L2751.83 1498.33 2752.01 1498.56 2752.24 1498.74 2752.43 1500.41C2755.39 1519.07 2762.31 1532.16 2770.38 1532.16 2778.45 1532.16 2785.37 1519.07 2788.33 1500.41L2788.53 1498.74 2788.75 1498.56 2788.93 1498.33 2790.6 1498.14C2809.25 1495.18 2822.33 1488.25 2822.33 1480.18 2822.33 1472.11 2809.25 1465.18 2790.6 1462.22L2788.93 1462.03 2788.75 1461.81 2788.53 1461.62 2788.33 1459.95C2785.37 1441.3 2778.45 1428.21 2770.38 1428.21ZM1974.46 1352.46 2003.92 1353.58C2016.09 1354.51 2027.83 1355.89 2039.02 1357.67L2039.28 1357.72 2039.85 1357.67 2052.24 1357.01 2058.05 1357.67C2127.3 1368.32 2175.88 1393.25 2175.88 1422.32L2175.88 1422.32C2175.88 1486.9 2283.85 1539.26 2417.04 1539.26 2489.88 1539.26 2555.17 1523.6 2599.39 1498.85L2619.78 1485.29 2620.31 1491.61C2623.2 1552.16 2613.09 1613.21 2589.98 1670.22L2576.96 1698.29 2572.65 1707.58C2553.39 1744.25 2528.36 1778.67 2497.55 1809.49 2333.22 1973.9 2066.78 1973.9 1902.45 1809.49 1810.02 1717.01 1769.58 1592.21 1781.13 1471.45L1781.13 1471.45 1781.91 1466.04 1786.91 1431.39 1789.12 1422.32 1790.03 1422.32C1790.03 1388.41 1856.16 1360.12 1944.08 1353.58ZM2200 1352.15C2413.03 1352.15 2588.25 1379.76 2609.32 1415.14L2609.39 1415.36 2610.99 1422.32 2609.97 1422.32C2609.97 1461.07 2523.59 1492.48 2417.04 1492.48 2310.49 1492.48 2224.12 1461.07 2224.12 1422.32L2224.12 1422.32C2224.12 1398.1 2208.93 1375.6 2182.93 1356.93L2175.51 1352.57ZM2875.18 1213.66C2867.11 1213.66 2860.19 1226.75 2857.23 1245.4L2857.04 1247.07 2856.81 1247.26 2856.63 1247.48 2854.96 1247.67C2836.31 1250.63 2823.23 1257.56 2823.23 1265.63 2823.23 1273.71 2836.31 1280.63 2854.96 1283.59L2856.63 1283.79 2856.81 1284.01 2857.04 1284.19 2857.23 1285.86C2860.19 1304.52 2867.11 1317.61 2875.18 1317.61 2883.25 1317.61 2890.17 1304.52 2893.13 1285.86L2893.33 1284.19 2893.55 1284.01 2893.73 1283.79 2895.4 1283.59C2914.05 1280.63 2927.13 1273.71 2927.13 1265.63 2927.13 1257.56 2914.05 1250.63 2895.4 1247.67L2893.73 1247.48 2893.55 1247.26 2893.33 1247.07 2893.13 1245.4C2890.17 1226.75 2883.25 1213.66 2875.18 1213.66ZM2719.5 922.522C2703.36 922.522 2689.51 948.701 2683.6 986.01L2683.21 989.353 2682.77 989.721 2682.4 990.165 2679.06 990.555C2641.77 996.472 2615.6 1010.33 2615.6 1026.47 2615.6 1042.62 2641.77 1056.47 2679.06 1062.39L2682.4 1062.78 2682.77 1063.22 2683.21 1063.59 2683.6 1066.93C2689.51 1104.24 2703.36 1130.42 2719.5 1130.42 2735.64 1130.42 2749.49 1104.24 2755.4 1066.93L2755.79 1063.59 2756.23 1063.22 2756.6 1062.78 2759.94 1062.39C2797.23 1056.47 2823.4 1042.62 2823.4 1026.47 2823.4 1010.33 2797.23 996.472 2759.94 990.555L2756.6 990.165 2756.23 989.721 2755.79 989.353 2755.4 986.01C2749.49 948.701 2735.64 922.522 2719.5 922.522ZM2106.49 822.867 2293.51 822.867 2293.51 943.823 2293.51 943.823 2293.51 1009.98 2497.55 1214.11C2536.06 1252.64 2565.55 1296.79 2586.01 1343.92L2593.27 1362.46 2587.5 1359.88C2506.3 1327.12 2363.1 1305.37 2200 1305.37 2168.37 1305.37 2137.48 1306.19 2107.66 1307.75L2057.8 1311.7 2031.56 1307.75C2015.86 1306.19 1999.61 1305.37 1982.96 1305.37 1924.69 1305.37 1871.25 1315.39 1829.56 1332.08L1817.18 1337.94 1819.83 1332.22 1827.35 1316.02 1829.17 1312.94 1848.53 1280.15C1863.94 1256.81 1881.91 1234.66 1902.45 1214.11L1939.55 1177 2106.49 1009.98 2106.49 822.867ZM1706.47 766.597C1682.27 766.597 1661.5 805.866 1652.62 861.829L1652.04 866.844 1651.37 867.395 1650.82 868.062 1645.81 868.646C1589.87 877.522 1550.62 898.302 1550.62 922.522 1550.62 946.742 1589.87 967.523 1645.81 976.399L1650.82 976.983 1651.37 977.65 1652.04 978.201 1652.62 983.215C1661.5 1039.18 1682.27 1078.45 1706.47 1078.45 1730.68 1078.45 1751.45 1039.18 1760.33 983.215L1760.91 978.201 1761.58 977.65 1762.13 976.983 1767.14 976.399C1823.08 967.523 1862.32 946.742 1862.32 922.522 1862.32 898.302 1823.08 877.522 1767.14 868.646L1762.13 868.062 1761.58 867.395 1760.91 866.844 1760.33 861.829C1751.45 805.866 1730.68 766.597 1706.47 766.597ZM2059.74 730.047 2340.27 730.047C2353.18 730.047 2363.64 740.518 2363.64 753.435 2363.64 766.352 2353.18 776.824 2340.27 776.824L2340.27 776.089 2059.74 776.089 2059.74 776.824C2046.82 776.824 2036.36 766.352 2036.36 753.435 2036.36 746.977 2038.97 741.129 2043.2 736.897 2047.43 732.664 2053.28 730.047 2059.74 730.047ZM1888.3 643.433C1880.23 643.433 1873.31 656.523 1870.35 675.177L1870.16 676.849 1869.93 677.032 1869.75 677.255 1868.08 677.449C1849.43 680.408 1836.35 687.335 1836.35 695.408 1836.35 703.482 1849.43 710.408 1868.08 713.367L1869.75 713.562 1869.93 713.784 1870.16 713.968 1870.35 715.639C1873.31 734.294 1880.23 747.383 1888.3 747.383 1896.37 747.383 1903.29 734.294 1906.25 715.639L1906.45 713.968 1906.67 713.784 1906.85 713.562 1908.52 713.367C1927.17 710.408 1940.25 703.482 1940.25 695.408 1940.25 687.335 1927.17 680.408 1908.52 677.449L1906.85 677.255 1906.67 677.032 1906.45 676.849 1906.25 675.177C1903.29 656.523 1896.37 643.433 1888.3 643.433ZM2132.82 542.202 2267.18 542.202C2281.72 542.202 2293.51 553.996 2293.51 568.545L2293.51 594.54 2293.51 609.412 2293.51 682.534 2106.49 682.534 2106.49 609.412 2106.49 594.54 2106.49 568.545C2106.49 561.271 2109.44 554.685 2114.2 549.918 2118.97 545.15 2125.55 542.202 2132.82 542.202ZM2287.6 495.423 2112.4 495.424C2096.04 495.424 2081.42 502.888 2071.76 514.598 2068.54 518.501 2065.87 522.875 2063.87 527.604L2060.93 542.202 2059.74 542.202 2059.74 548.112 2059.74 629.845 2059.74 682.534C2021 682.534 1989.6 713.948 1989.6 752.7 1989.6 791.452 2021 822.867 2059.74 822.867L2059.74 990.601 1869.39 1181.04C1812.33 1238.12 1773.1 1306.29 1751.71 1378.62L1746.86 1398.49 1746.7 1398.75 1746.16 1401.37 1741.01 1422.46C1712.48 1569.89 1755.27 1728.4 1869.39 1842.57 2051.98 2025.25 2348.02 2025.25 2530.61 1842.57 2713.2 1659.89 2713.2 1363.71 2530.61 1181.04L2340.27 990.601 2340.27 822.867C2379 822.867 2410.4 791.452 2410.4 752.7 2410.4 713.949 2379 682.534 2340.27 682.534L2340.27 629.845 2340.27 548.112 2340.27 542.202 2339.07 542.202 2336.13 527.604C2328.13 508.693 2309.42 495.424 2287.6 495.423ZM2200 301.95C2716.44 301.95 3135.1 720.81 3135.1 1237.5 3135.1 1754.19 2716.44 2173.05 2200 2173.05 1683.56 2173.05 1264.9 1754.19 1264.9 1237.5 1264.9 720.81 1683.56 301.95 2200 301.95ZM2200 249.975C1654.87 249.975 1212.95 692.105 1212.95 1237.5 1212.95 1782.9 1654.87 2225.02 2200 2225.02 2745.13 2225.02 3187.05 1782.9 3187.05 1237.5 3187.05 692.105 2745.13 249.975 2200 249.975ZM2200 198C2773.82 198 3239 663.4 3239 1237.5 3239 1811.6 2773.82 2277 2200 2277 1626.18 2277 1161 1811.6 1161 1237.5 1161 663.4 1626.18 198 2200 198Z" fill="#5F57E6" fill-rule="evenodd"/></g></svg>