<svg width="2338" height="2339" xmlns="http://www.w3.org/2000/svg" xmlns:xlink="http://www.w3.org/1999/xlink" xml:space="preserve" overflow="hidden"><g transform="translate(-1031 -68)"><path d="M1810.4 263 1940.27 263C1976.13 263 2005.2 292.087 2005.2 327.967 2005.2 363.847 1976.13 392.933 1940.27 392.933L1875.33 392.933 1875.33 392.933 1637.25 392.933C1481.85 392.933 1355.87 518.978 1355.87 674.461L1355.87 1800.54C1355.87 1956.02 1481.85 2082.07 1637.25 2082.07L2762.75 2082.07C2918.15 2082.07 3044.13 1956.02 3044.13 1800.54L3044.13 1627.3 3044.13 1627.3 3044.13 1497.37C3044.13 1461.49 3073.2 1432.4 3109.07 1432.4 3144.93 1432.4 3174 1461.49 3174 1497.37L3174 977.633C3174 1013.51 3144.93 1042.6 3109.07 1042.6 3073.2 1042.6 3044.13 1013.51 3044.13 977.633L3044.13 467.134 2310.85 1200.8C2285.49 1226.17 2244.38 1226.17 2219.02 1200.8 2193.66 1175.42 2193.66 1134.29 2219.02 1108.92L2934.64 392.933 2459.73 392.933C2423.87 392.933 2394.8 363.847 2394.8 327.967 2394.8 292.087 2423.87 263 2459.73 263L3091.4 263 3091.4 263 3091.4 263 3109.07 263 3109.07 263 3109.07 263C3144.93 263 3174 292.087 3174 327.967L3174 327.971 3174 587.832 3174 587.84 3174 1887.16C3174 2066.56 3028.64 2212 2849.33 2212L1550.67 2212C1371.36 2212 1226 2066.56 1226 1887.16L1226 587.84C1226 408.436 1371.36 263 1550.67 263L1810.4 263Z" fill="#FFFFFF" fill-rule="evenodd"/></g></svg>