<svg width="2338" height="2339" xmlns="http://www.w3.org/2000/svg" xmlns:xlink="http://www.w3.org/1999/xlink" xml:space="preserve" overflow="hidden"><g transform="translate(-1031 -68)"><path d="M1721.64 1269.96 2678.36 1269.96C2916.2 1269.96 3109 1462.79 3109 1700.67L3109 1878.29C3109 2116.16 2916.2 2309 2678.36 2309L1721.64 2309C1483.8 2309 1291 2116.16 1291 1878.29L1291 1700.67C1291 1462.79 1483.8 1269.96 1721.64 1269.96ZM2200 166C2451.01 166 2654.5 369.523 2654.5 620.581 2654.5 871.639 2451.01 1075.16 2200 1075.16 1948.99 1075.16 1745.5 871.639 1745.5 620.581 1745.5 369.523 1948.99 166 2200 166Z" fill="#FFFFFF" fill-rule="evenodd"/></g></svg>