<svg width="2338" height="2339" xmlns="http://www.w3.org/2000/svg" xmlns:xlink="http://www.w3.org/1999/xlink" xml:space="preserve" overflow="hidden"><g transform="translate(-1031 -68)"><path d="M2296.8 1045.21 2246.62 1095.35 2246.13 1097.78C2243.67 1103.61 2237.89 1107.7 2231.16 1107.7L2228.65 1107.7 2226.76 1108.48 2224.86 1107.7 2171.51 1107.7 2169.61 1108.48 2167.72 1107.7 2166.16 1107.7C2159.43 1107.7 2153.66 1103.61 2151.19 1097.78L2150.94 1096.55 2100.4 1046.04 2050.15 1096.26 2159.01 1284.69C2161.26 1288.57 2161.71 1293 2160.64 1297.01L2159.84 1298.05 2159.92 1298.16C2160.74 1300.1 2161.19 1302.24 2161.19 1304.48L2161.19 1791.64C2161.19 1796.12 2159.37 1800.18 2156.43 1803.12L2146.72 1807.14 2253.28 1807.14 2243.57 1803.12C2240.63 1800.18 2238.81 1796.12 2238.81 1791.64L2238.81 1304.48C2238.81 1302.24 2239.26 1300.1 2240.08 1298.16L2240.16 1298.05 2239.36 1297.01C2238.29 1293 2238.74 1288.57 2240.99 1284.69L2349.13 1097.51ZM2200 409.432C1894.86 409.432 1647.5 656.623 1647.5 961.547 1647.5 1209.3 1810.8 1418.94 2035.7 1488.84L2037.5 1489.3 2037.5 1753.01C2037.5 1782.91 2061.75 1807.14 2091.67 1807.14L2143.17 1807.14 2133.45 1803.12C2130.51 1800.18 2128.69 1796.12 2128.69 1791.64L2128.69 1304.48 2129.79 1299.06 2017.12 1104.05 2016.26 1097.55 1953.5 1034.83C1947.15 1028.49 1947.15 1018.21 1953.5 1011.86 1956.67 1008.69 1960.83 1007.11 1964.99 1007.11 1969.15 1007.11 1973.31 1008.69 1976.48 1011.86L2032.56 1067.91 2088.64 1011.86C2091.81 1008.69 2095.97 1007.11 2100.13 1007.11L2100.4 1007.22 2100.67 1007.11C2104.83 1007.11 2108.99 1008.69 2112.16 1011.86L2175.56 1075.22 2220.81 1075.22 2284.21 1011.86C2287.38 1008.69 2291.54 1007.11 2295.7 1007.11L2296.8 1007.56 2297.9 1007.11C2302.06 1007.11 2306.22 1008.69 2309.39 1011.86L2367.55 1069.98 2426.49 1011.08C2429.67 1007.91 2433.82 1006.32 2437.98 1006.32 2442.14 1006.32 2446.3 1007.91 2449.47 1011.08 2455.82 1017.42 2455.82 1027.7 2449.47 1034.05L2383.41 1100.07 2382.88 1104.05 2270.21 1299.06 2271.31 1304.48 2271.31 1791.64C2271.31 1796.12 2269.49 1800.18 2266.55 1803.12L2256.83 1807.14 2308.33 1807.14C2338.25 1807.14 2362.5 1782.91 2362.5 1753.01L2362.5 1489.3 2364.3 1488.84C2589.2 1418.94 2752.5 1209.3 2752.5 961.547 2752.5 656.623 2505.14 409.432 2200 409.432ZM2200 312C2558.99 312 2850 602.812 2850 961.547 2850 1208.18 2712.45 1422.7 2509.83 1532.7L2456.46 1558.39 2458.68 1565.53C2459.55 1569.76 2460 1574.13 2460 1578.62L2460 1838.44C2460 1865.34 2443.63 1888.43 2420.3 1898.29L2395 1903.39 2420.3 1908.5C2443.63 1918.36 2460 1941.44 2460 1968.35 2460 2004.22 2430.9 2033.3 2395 2033.3 2430.9 2033.3 2460 2062.38 2460 2098.25 2460 2134.13 2430.9 2163.21 2395 2163.21L2338.75 2163.21 2338.75 2211.93 2337.11 2211.93 2338.75 2220.05C2338.75 2255.92 2309.65 2285 2273.75 2285L2143.75 2285C2107.85 2285 2078.75 2255.92 2078.75 2220.05L2080.39 2211.93 2078.75 2211.93 2078.75 2163.21 2005 2163.21C1969.1 2163.21 1940 2134.13 1940 2098.25 1940 2062.38 1969.1 2033.3 2005 2033.3 1969.1 2033.3 1940 2004.22 1940 1968.35 1940 1941.44 1956.37 1918.36 1979.7 1908.5L2005 1903.39 1979.7 1898.29C1956.37 1888.43 1940 1865.34 1940 1838.44L1940 1578.62C1940 1574.13 1940.46 1569.76 1941.32 1565.53L1943.54 1558.39 1890.17 1532.7C1687.55 1422.7 1550 1208.18 1550 961.547 1550 602.812 1841.01 312 2200 312Z" fill="#5F57E6" fill-rule="evenodd"/><path d="M2988 1006.5C2988 988.551 3002.55 974 3020.5 974L3085.5 974C3103.45 974 3118 988.551 3118 1006.5L3118 1006.5C3118 1024.45 3103.45 1039 3085.5 1039L3020.5 1039C3002.55 1039 2988 1024.45 2988 1006.5Z" fill="#5F57E6" fill-rule="evenodd"/><path d="M0 32.5001C-4.13769e-15 14.5508 14.5508-4.1377e-15 32.5001-8.27539e-15L97.5002 0C115.45-8.27539e-15 130 14.5508 130 32.5001L130 32.5001C130 50.4494 115.45 65.0002 97.5002 65.0002L32.5001 65.0002C14.5508 65.0002 0 50.4494 0 32.5001Z" fill="#5F57E6" fill-rule="evenodd" transform="matrix(-1 0 0 1 1412 974)"/><path d="M2891.55 1398.71C2900.52 1383.17 2920.38 1377.85 2935.92 1386.82L2992.17 1419.3C3007.71 1428.27 3013.03 1448.13 3004.06 1463.67L3004.06 1463.67C2995.09 1479.2 2975.23 1484.53 2959.69 1475.56L2903.44 1443.08C2887.9 1434.11 2882.58 1414.24 2891.55 1398.71Z" fill="#5F57E6" fill-rule="evenodd"/><path d="M0 32.4803C-4.13518e-15 14.5419 14.5419-4.13518e-15 32.4803-8.27036e-15L97.4409 0C115.379-8.27036e-15 129.921 14.5419 129.921 32.4803L129.921 32.4803C129.921 50.4187 115.379 64.9606 97.4409 64.9606L32.4803 64.9606C14.5419 64.9606 0 50.4187 0 32.4803Z" fill="#5F57E6" fill-rule="evenodd" transform="matrix(-0.866025 -0.5 -0.5 0.866025 1542.18 582.146)"/><path d="M0 32.4803C-4.13518e-15 14.5419 14.5419-4.13518e-15 32.4803-8.27036e-15L97.4409 0C115.379-8.27036e-15 129.921 14.5419 129.921 32.4803L129.921 32.4803C129.921 50.4187 115.379 64.9606 97.4409 64.9606L32.4803 64.9606C14.5419 64.9606 0 50.4187 0 32.4803Z" fill="#5F57E6" fill-rule="evenodd" transform="matrix(-0.866025 0.5 0.5 0.866025 1509.7 1370.58)"/><path d="M2891.55 610.275C2882.58 594.74 2887.9 574.875 2903.44 565.906L2959.69 533.426C2975.23 524.457 2995.09 529.779 3004.06 545.315L3004.06 545.315C3013.03 560.85 3007.71 580.714 2992.17 589.683L2935.92 622.164C2920.38 631.133 2900.52 625.81 2891.55 610.275Z" fill="#5F57E6" fill-rule="evenodd"/></g></svg>