<svg width="2338" height="2339" xmlns="http://www.w3.org/2000/svg" xmlns:xlink="http://www.w3.org/1999/xlink" xml:space="preserve" overflow="hidden"><defs><clipPath id="clip0"><rect x="1031" y="68" width="2338" height="2339"/></clipPath></defs><g clip-path="url(#clip0)" transform="translate(-1031 -68)"><rect x="1031" y="68.0001" width="2338" height="2339" fill="#D6DCE5"/><path d="M1647.5 2066.62C1629.55 2066.62 1615 2081.17 1615 2099.11 1615 2117.05 1629.55 2131.59 1647.5 2131.59L2752.5 2131.59C2770.45 2131.59 2785 2117.05 2785 2099.11 2785 2081.17 2770.45 2066.62 2752.5 2066.62ZM2037.36 1807.64C2019.41 1807.64 2004.86 1822.18 2004.86 1840.12 2004.86 1858.07 2019.41 1872.61 2037.36 1872.61L2752.36 1872.61C2770.31 1872.61 2784.86 1858.07 2784.86 1840.12 2784.86 1822.18 2770.31 1807.64 2752.36 1807.64ZM1710.59 1722.62C1677.54 1722.62 1650.75 1749.4 1650.75 1782.44L1650.75 1807.11C1650.75 1840.15 1677.54 1866.93 1710.59 1866.93L1843.52 1866.93C1876.57 1866.93 1903.36 1840.15 1903.36 1807.11L1903.36 1782.44C1903.36 1749.4 1876.57 1722.62 1843.52 1722.62ZM1777.06 1569.3C1742.18 1569.3 1713.91 1597.57 1713.91 1632.43 1713.91 1667.3 1742.18 1695.57 1777.06 1695.57 1811.93 1695.57 1840.21 1667.3 1840.21 1632.43 1840.21 1597.57 1811.93 1569.3 1777.06 1569.3ZM2037.36 1551.09C2019.41 1551.09 2004.86 1565.63 2004.86 1583.57 2004.86 1601.52 2019.41 1616.06 2037.36 1616.06L2752.36 1616.06C2770.31 1616.06 2784.86 1601.52 2784.86 1583.57 2784.86 1565.63 2770.31 1551.09 2752.36 1551.09ZM2037.36 1295.38C2019.41 1295.38 2004.86 1309.93 2004.86 1327.87 2004.86 1345.81 2019.41 1360.35 2037.36 1360.35L2752.36 1360.35C2770.31 1360.35 2784.86 1345.81 2784.86 1327.87 2784.86 1309.93 2770.31 1295.38 2752.36 1295.38ZM1710.59 1205.07C1677.54 1205.07 1650.75 1231.85 1650.75 1264.89L1650.75 1289.56C1650.75 1322.6 1677.54 1349.38 1710.59 1349.38L1843.53 1349.38C1876.57 1349.38 1903.36 1322.6 1903.36 1289.56L1903.36 1264.89C1903.36 1231.85 1876.57 1205.07 1843.53 1205.07ZM1777.06 1051.75C1742.18 1051.75 1713.91 1080.01 1713.91 1114.88 1713.91 1149.75 1742.18 1178.02 1777.06 1178.02 1811.94 1178.02 1840.21 1149.75 1840.21 1114.88 1840.21 1080.01 1811.94 1051.75 1777.06 1051.75ZM2037.5 1036.4C2019.55 1036.4 2005 1050.94 2005 1068.88 2005 1086.82 2019.55 1101.37 2037.5 1101.37L2752.5 1101.37C2770.45 1101.37 2785 1086.82 2785 1068.88 2785 1050.94 2770.45 1036.4 2752.5 1036.4ZM2037.5 780.493C2019.55 780.493 2005 795.037 2005 812.978 2005 830.919 2019.55 845.463 2037.5 845.463L2752.5 845.463C2770.45 845.463 2785 830.919 2785 812.978 2785 795.037 2770.45 780.493 2752.5 780.493ZM1710.73 687.52C1677.68 687.52 1650.89 714.302 1650.89 747.339L1650.89 772.009C1650.89 805.045 1677.68 831.828 1710.73 831.828L1843.66 831.828C1876.71 831.828 1903.5 805.045 1903.5 772.009L1903.5 747.339C1903.5 714.302 1876.71 687.52 1843.66 687.52ZM1777.2 534.196C1742.32 534.196 1714.04 562.463 1714.04 597.331 1714.04 632.199 1742.32 660.465 1777.2 660.465 1812.07 660.465 1840.35 632.199 1840.35 597.331 1840.35 562.463 1812.07 534.196 1777.2 534.196ZM2037.5 522.824C2019.55 522.824 2005 537.368 2005 555.309 2005 573.25 2019.55 587.794 2037.5 587.794L2752.5 587.794C2770.45 587.794 2785 573.25 2785 555.309 2785 537.368 2770.45 522.824 2752.5 522.824ZM1590.62 262.941 1875.89 262.941 1875 271.795C1875 379.441 1962.3 466.706 2070 466.706L2330 466.706C2437.7 466.706 2525 379.441 2525 271.795L2524.11 262.941 2809.38 262.941C2903.61 262.941 2980 339.295 2980 433.481L2980 2171.46C2980 2265.65 2903.61 2342 2809.38 2342L1590.62 2342C1496.39 2342 1420 2265.65 1420 2171.46L1420 433.481C1420 339.295 1496.39 262.941 1590.62 262.941ZM2070 133 2330 133C2401.8 133 2460 191.176 2460 262.941 2460 334.706 2401.8 392.882 2330 392.882L2070 392.882C1998.2 392.882 1940 334.706 1940 262.941 1940 191.176 1998.2 133 2070 133Z" fill="#222A35" fill-rule="evenodd"/></g></svg>