<svg width="2338" height="2339" xmlns="http://www.w3.org/2000/svg" xmlns:xlink="http://www.w3.org/1999/xlink" xml:space="preserve" overflow="hidden"><g transform="translate(-1031 -68)"><path d="M1948 1624.17 1948 1624.16 1948 324.84C1948 145.436 1802.64 0 1623.33 0L324.674 0C145.362 0 0.00108222 145.436 0.00108222 324.84L0.00108222 786.616 0 786.621 0 1020.79C0 1056.67 29.0717 1085.75 64.9333 1085.75 100.795 1085.75 129.867 1056.67 129.867 1020.79L129.867 974.5 129.868 974.5 129.868 411.461C129.868 255.978 255.847 129.933 411.251 129.933L1536.75 129.933C1692.15 129.933 1818.13 255.978 1818.13 411.461L1818.13 785.554 1818.13 785.557 1818.13 1019.72C1818.13 1055.6 1847.2 1084.69 1883.07 1084.69 1918.93 1084.69 1948 1055.6 1948 1019.72ZM974 1949 974.001 1949 987.087 1947.68 997.682 1944.39 998.435 1944.24 998.682 1944.08 999.275 1943.89 1019.89 1929.99 1019.92 1929.97 1019.92 1929.97 1479.06 1470.59C1504.42 1445.22 1504.42 1404.08 1479.06 1378.71 1453.7 1353.34 1412.59 1353.34 1387.23 1378.71L1038.93 1727.19 1038.93 454.767C1038.93 418.887 1009.86 389.8 974 389.8 938.139 389.8 909.067 418.887 909.067 454.767L909.067 1727.19 560.767 1378.71C535.41 1353.34 494.296 1353.34 468.938 1378.71 443.58 1404.08 443.58 1445.22 468.938 1470.59L928.085 1929.97 928.085 1929.97 928.107 1929.99 948.725 1943.89 949.319 1944.08 949.566 1944.24 950.319 1944.39 960.914 1947.68 974 1949Z" fill="#FFFFFF" fill-rule="evenodd" transform="matrix(1 0 0 -1 1226 2212)"/></g></svg>